<svg width="24" height="26" viewBox="0 0 24 26" fill="none" xmlns="http://www.w3.org/2000/svg">
<path d="M23.2862 19.7712C23.1849 19.9403 23.0513 20.0877 22.8929 20.2051C22.7346 20.3225 22.5547 20.4076 22.3635 20.4554C22.1723 20.5032 21.9736 20.5129 21.7787 20.4839C21.5837 20.4548 21.3964 20.3877 21.2274 20.2862L13.4999 15.6488V24C13.4999 24.3978 13.3419 24.7794 13.0606 25.0607C12.7793 25.342 12.3978 25.5 11.9999 25.5C11.6021 25.5 11.2206 25.342 10.9393 25.0607C10.658 24.7794 10.4999 24.3978 10.4999 24V15.6488L2.77244 20.2862C2.60353 20.3876 2.41631 20.4547 2.22146 20.4837C2.02662 20.5127 1.82797 20.5031 1.63685 20.4553C1.44574 20.4076 1.2659 20.3226 1.10761 20.2053C0.949325 20.0881 0.815683 19.9408 0.714319 19.7719C0.509605 19.4307 0.448791 19.0223 0.545255 18.6363C0.641719 18.2503 0.88756 17.9185 1.22869 17.7138L9.08494 13L1.22869 8.28625C0.88756 8.08154 0.641719 7.74969 0.545255 7.36372C0.448791 6.97774 0.509605 6.56926 0.714319 6.22812C0.919033 5.88699 1.25088 5.64115 1.63685 5.54469C2.02282 5.44822 2.43131 5.50904 2.77244 5.71375L10.4999 10.3512V2C10.4999 1.60218 10.658 1.22064 10.9393 0.93934C11.2206 0.658035 11.6021 0.5 11.9999 0.5C12.3978 0.5 12.7793 0.658035 13.0606 0.93934C13.3419 1.22064 13.4999 1.60218 13.4999 2V10.3512L21.2274 5.71375C21.3964 5.61239 21.5836 5.54528 21.7784 5.51628C21.9733 5.48727 22.1719 5.49692 22.363 5.54469C22.5542 5.59245 22.734 5.67739 22.8923 5.79465C23.0506 5.91192 23.1842 6.05921 23.2856 6.22812C23.3869 6.39704 23.454 6.58426 23.483 6.77911C23.5121 6.97395 23.5024 7.1726 23.4546 7.36372C23.4069 7.55483 23.3219 7.73467 23.2047 7.89296C23.0874 8.05125 22.9401 8.18489 22.7712 8.28625L14.9149 13L22.7712 17.7138C23.1123 17.9183 23.3581 18.25 23.4547 18.6359C23.5513 19.0217 23.4907 19.4301 23.2862 19.7712Z" fill="black"/>
</svg>
