<svg width="201" height="29" viewBox="0 0 201 29" fill="none" xmlns="http://www.w3.org/2000/svg">
<path d="M15.8601 17.54C15.5201 19.3 14.7101 20.72 13.4301 21.8C12.1701 22.88 10.4801 23.42 8.36006 23.42C7.26006 23.42 6.23006 23.25 5.27006 22.91C4.33006 22.57 3.51006 22.08 2.81006 21.44C2.11006 20.8 1.56006 20.01 1.16006 19.07C0.760059 18.13 0.560059 17.06 0.560059 15.86V15.5C0.560059 14.3 0.760059 13.22 1.16006 12.26C1.56006 11.3 2.11006 10.48 2.81006 9.79999C3.53006 9.11999 4.36006 8.59999 5.30006 8.23999C6.26006 7.87999 7.28006 7.69999 8.36006 7.69999C10.4401 7.69999 12.1201 8.23998 13.4001 9.31999C14.7001 10.4 15.5201 11.82 15.8601 13.58L12.1401 14.54C12.0201 13.66 11.6401 12.9 11.0001 12.26C10.3601 11.62 9.46006 11.3 8.30006 11.3C7.76006 11.3 7.25006 11.4 6.77006 11.6C6.29006 11.8 5.87006 12.09 5.51006 12.47C5.15006 12.83 4.86006 13.28 4.64006 13.82C4.44006 14.34 4.34006 14.93 4.34006 15.59V15.77C4.34006 16.43 4.44006 17.02 4.64006 17.54C4.86006 18.04 5.15006 18.46 5.51006 18.8C5.87006 19.14 6.29006 19.4 6.77006 19.58C7.25006 19.74 7.76006 19.82 8.30006 19.82C9.46006 19.82 10.3401 19.53 10.9401 18.95C11.5601 18.37 11.9601 17.59 12.1401 16.61L15.8601 17.54Z" fill="black"/>
<path d="M22.0492 23H18.2692V1.99998H22.0492V10.52H22.5892C22.9692 9.61999 23.5292 8.92999 24.2692 8.44999C25.0092 7.94999 25.9192 7.69999 26.9992 7.69999C27.7392 7.69999 28.4192 7.81999 29.0392 8.05999C29.6592 8.29999 30.1992 8.65999 30.6592 9.13999C31.1192 9.61999 31.4792 10.24 31.7392 11C31.9992 11.74 32.1292 12.62 32.1292 13.64V23H28.3492V14.54C28.3492 13.48 28.0892 12.65 27.5692 12.05C27.0692 11.43 26.3392 11.12 25.3792 11.12C24.2592 11.12 23.4192 11.5 22.8592 12.26C22.3192 13 22.0492 14 22.0492 15.26V23Z" fill="black"/>
<path d="M35.3483 19.4H40.3883V11.72H35.7083V8.11999H44.1683V19.4H48.4883V23H35.3483V19.4ZM45.0983 3.70999C45.0983 4.10999 45.0183 4.48999 44.8583 4.84999C44.7183 5.18999 44.5183 5.48999 44.2583 5.74998C43.9983 5.98999 43.6883 6.18999 43.3283 6.34999C42.9883 6.48999 42.6283 6.55999 42.2483 6.55999C41.8483 6.55999 41.4783 6.48999 41.1383 6.34999C40.7983 6.18999 40.4983 5.98999 40.2383 5.74998C39.9783 5.48999 39.7683 5.18999 39.6083 4.84999C39.4683 4.48999 39.3983 4.10999 39.3983 3.70999C39.3983 3.30999 39.4683 2.93999 39.6083 2.59999C39.7683 2.23999 39.9783 1.93999 40.2383 1.69999C40.4983 1.43999 40.7983 1.23999 41.1383 1.09999C41.4783 0.939986 41.8483 0.859985 42.2483 0.859985C42.6283 0.859985 42.9883 0.939986 43.3283 1.09999C43.6883 1.23999 43.9983 1.43999 44.2583 1.69999C44.5183 1.93999 44.7183 2.23999 44.8583 2.59999C45.0183 2.93999 45.0983 3.30999 45.0983 3.70999Z" fill="black"/>
<path d="M62.6275 20.84H62.0875C61.9275 21.18 61.7275 21.51 61.4875 21.83C61.2675 22.13 60.9675 22.4 60.5875 22.64C60.2275 22.88 59.7875 23.07 59.2675 23.21C58.7675 23.35 58.1575 23.42 57.4375 23.42C56.5175 23.42 55.6575 23.26 54.8575 22.94C54.0775 22.6 53.3875 22.11 52.7875 21.47C52.2075 20.81 51.7475 20.01 51.4075 19.07C51.0875 18.13 50.9275 17.05 50.9275 15.83V15.29C50.9275 14.09 51.0975 13.02 51.4375 12.08C51.7975 11.14 52.2775 10.35 52.8775 9.70999C53.4975 9.04999 54.2075 8.54999 55.0075 8.20999C55.8275 7.86999 56.6875 7.69999 57.5875 7.69999C58.7875 7.69999 59.7375 7.92999 60.4375 8.38999C61.1375 8.82999 61.6875 9.45999 62.0875 10.28H62.6275V1.99998H66.4075V23H62.6275V20.84ZM58.6675 19.82C59.8475 19.82 60.7975 19.45 61.5175 18.71C62.2575 17.95 62.6275 16.96 62.6275 15.74V15.38C62.6275 14.16 62.2575 13.18 61.5175 12.44C60.7975 11.68 59.8475 11.3 58.6675 11.3C57.4875 11.3 56.5275 11.67 55.7875 12.41C55.0675 13.13 54.7075 14.12 54.7075 15.38V15.74C54.7075 17 55.0675 18 55.7875 18.74C56.5275 19.46 57.4875 19.82 58.6675 19.82Z" fill="black"/>
<path d="M78.4466 20.84C78.0466 21.78 77.4866 22.45 76.7666 22.85C76.0466 23.23 75.2066 23.42 74.2466 23.42C73.3466 23.42 72.4966 23.25 71.6966 22.91C70.9166 22.57 70.2266 22.07 69.6266 21.41C69.0266 20.75 68.5466 19.95 68.1866 19.01C67.8466 18.07 67.6766 17 67.6766 15.8V15.32C67.6766 14.14 67.8466 13.08 68.1866 12.14C68.5266 11.2 68.9866 10.4 69.5666 9.73999C70.1466 9.07999 70.8166 8.57999 71.5766 8.23999C72.3566 7.87999 73.1866 7.69999 74.0666 7.69999C75.1266 7.69999 75.9766 7.87999 76.6166 8.23999C77.2766 8.59999 77.7966 9.15999 78.1766 9.91999H78.7166V8.11999H82.4966V18.5C82.4966 19.1 82.7666 19.4 83.3066 19.4H83.8766V23H81.2966C80.6166 23 80.0566 22.8 79.6166 22.4C79.1966 22 78.9866 21.48 78.9866 20.84H78.4466ZM75.0866 19.82C76.1866 19.82 77.0666 19.46 77.7266 18.74C78.3866 18 78.7166 17 78.7166 15.74V15.38C78.7166 14.12 78.3866 13.13 77.7266 12.41C77.0666 11.67 76.1866 11.3 75.0866 11.3C73.9866 11.3 73.1066 11.67 72.4466 12.41C71.7866 13.13 71.4566 14.12 71.4566 15.38V15.74C71.4566 17 71.7866 18 72.4466 18.74C73.1066 19.46 73.9866 19.82 75.0866 19.82Z" fill="black"/>
<path d="M85.5958 19.4H90.8158V5.59999H85.7758V1.99998H94.5958V19.4H99.4558V23H85.5958V19.4Z" fill="black"/>
<path d="M112.635 8.11999H116.415V23H112.635V20.84H112.095C111.435 22.56 110.015 23.42 107.835 23.42C107.095 23.42 106.405 23.3 105.765 23.06C105.125 22.82 104.565 22.45 104.085 21.95C103.605 21.45 103.225 20.83 102.945 20.09C102.685 19.33 102.555 18.44 102.555 17.42V8.11999H106.335V16.64C106.335 17.7 106.585 18.53 107.085 19.13C107.585 19.71 108.335 20 109.335 20C110.475 20 111.305 19.64 111.825 18.92C112.365 18.18 112.635 17.18 112.635 15.92V8.11999Z" fill="black"/>
<path d="M146.373 8.11999H150.153V23H146.373V20.84H145.833C145.173 22.56 143.753 23.42 141.573 23.42C140.833 23.42 140.143 23.3 139.503 23.06C138.863 22.82 138.303 22.45 137.823 21.95C137.343 21.45 136.963 20.83 136.683 20.09C136.423 19.33 136.293 18.44 136.293 17.42V8.11999H140.073V16.64C140.073 17.7 140.323 18.53 140.823 19.13C141.323 19.71 142.073 20 143.073 20C144.213 20 145.043 19.64 145.563 18.92C146.103 18.18 146.373 17.18 146.373 15.92V8.11999Z" fill="black"/>
<path d="M163.782 20.84H163.242C163.082 21.18 162.882 21.51 162.642 21.83C162.422 22.13 162.122 22.4 161.742 22.64C161.382 22.88 160.942 23.07 160.422 23.21C159.922 23.35 159.312 23.42 158.592 23.42C157.672 23.42 156.812 23.26 156.012 22.94C155.232 22.6 154.542 22.11 153.942 21.47C153.362 20.81 152.902 20.01 152.562 19.07C152.242 18.13 152.082 17.05 152.082 15.83V15.29C152.082 14.09 152.252 13.02 152.592 12.08C152.952 11.14 153.432 10.35 154.032 9.70999C154.652 9.04999 155.362 8.54999 156.162 8.20999C156.982 7.86999 157.842 7.69999 158.742 7.69999C159.942 7.69999 160.892 7.92999 161.592 8.38999C162.292 8.82999 162.842 9.45999 163.242 10.28H163.782V8.11999H167.562V26.66C167.562 27.34 167.342 27.9 166.902 28.34C166.482 28.78 165.932 29 165.252 29H155.232V25.4H162.972C163.512 25.4 163.782 25.1 163.782 24.5V20.84ZM159.822 19.82C161.002 19.82 161.952 19.45 162.672 18.71C163.412 17.95 163.782 16.96 163.782 15.74V15.38C163.782 14.16 163.412 13.18 162.672 12.44C161.952 11.68 161.002 11.3 159.822 11.3C158.642 11.3 157.682 11.67 156.942 12.41C156.222 13.13 155.862 14.12 155.862 15.38V15.74C155.862 17 156.222 18 156.942 18.74C157.682 19.46 158.642 19.82 159.822 19.82Z" fill="black"/>
<path d="M184.611 23H178.071L177.231 11.72V9.91999H176.511V11.72L175.671 23H169.131L168.141 8.11999H171.621L172.281 19.4V21.2H173.001V19.4L173.751 8.11999H179.991L180.741 19.4V21.2H181.461V19.4L182.121 8.11999H185.601L184.611 23Z" fill="black"/>
<path d="M196.981 8.11999H200.761V23H196.981V20.84H196.441C195.781 22.56 194.361 23.42 192.181 23.42C191.441 23.42 190.751 23.3 190.111 23.06C189.471 22.82 188.911 22.45 188.431 21.95C187.951 21.45 187.571 20.83 187.291 20.09C187.031 19.33 186.901 18.44 186.901 17.42V8.11999H190.681V16.64C190.681 17.7 190.931 18.53 191.431 19.13C191.931 19.71 192.681 20 193.681 20C194.821 20 195.651 19.64 196.171 18.92C196.711 18.18 196.981 17.18 196.981 15.92V8.11999Z" fill="black"/>
</svg>
