<svg width="16" height="16" viewBox="0 0 16 16" fill="none" xmlns="http://www.w3.org/2000/svg">
<path d="M15.3125 3.46575C14.7743 3.70438 14.1961 3.86565 13.5891 3.9382C14.2087 3.56687 14.6844 2.97884 14.9084 2.27821C14.3195 2.62772 13.6751 2.87396 13.0031 3.00632C12.4558 2.4232 11.676 2.05878 10.813 2.05878C9.15589 2.05878 7.81239 3.40222 7.81239 5.05919C7.81239 5.29439 7.83895 5.52336 7.89008 5.74302C5.39641 5.61785 3.18552 4.42334 1.70559 2.60801C1.44737 3.05116 1.29941 3.56664 1.29941 4.11645C1.29941 5.15745 1.82916 6.0758 2.63422 6.61389C2.15774 6.59897 1.69174 6.47028 1.27513 6.23856C1.27496 6.25113 1.27496 6.26369 1.27496 6.27632C1.27496 7.73008 2.30922 8.94281 3.6818 9.21846C3.23995 9.33862 2.77649 9.35621 2.32681 9.26988C2.70861 10.4619 3.81674 11.3294 5.12967 11.3537C4.10278 12.1584 2.80898 12.6381 1.40327 12.6381C1.16104 12.6381 0.922243 12.6239 0.6875 12.5961C2.01535 13.4475 3.5925 13.9442 5.28695 13.9442C10.806 13.9442 13.8239 9.37214 13.8239 5.40716C13.8239 5.27702 13.8211 5.14762 13.8153 5.01897C14.4027 4.59432 14.9097 4.06835 15.3125 3.46575Z" fill="black"/>
</svg>
