<svg width="16" height="16" viewBox="0 0 16 16" fill="none" xmlns="http://www.w3.org/2000/svg">
<g clip-path="url(#clip0_294_1088)">
<path d="M8 15.9813C3.5875 15.9813 0 12.4 0 7.99375C0 3.58125 3.5875 0 8 0C12.4125 0 16 3.58125 16 7.9875C16 12.3938 12.4125 15.9813 8 15.9813ZM14.7437 9.08125C14.5125 9.00625 12.6313 8.45 10.4875 8.7875C11.3813 11.2375 11.7437 13.2375 11.8125 13.65C13.35 12.6188 14.4437 10.9813 14.7437 9.08125ZM10.6687 14.2813C10.5687 13.6813 10.1687 11.5938 9.2125 9.10625C9.2 9.1125 9.18125 9.11875 9.16875 9.11875C5.3125 10.4625 3.93125 13.1313 3.80625 13.3813C4.9625 14.2813 6.41875 14.8188 8 14.8188C8.94375 14.825 9.85 14.6313 10.6687 14.2813ZM2.925 12.5625C3.08125 12.3 4.95625 9.2 8.48125 8.05625C8.56875 8.025 8.6625 8 8.75 7.975C8.58125 7.5875 8.39375 7.2 8.19375 6.81875C4.78125 7.8375 1.46875 7.79375 1.16875 7.7875C1.16875 7.85625 1.1625 7.925 1.1625 7.99375C1.16875 9.75 1.83125 11.35 2.925 12.5625ZM1.3125 6.6C1.61875 6.60625 4.43125 6.61875 7.63125 5.76875C6.5 3.75625 5.275 2.06875 5.1 1.825C3.18125 2.725 1.75625 4.4875 1.3125 6.6ZM6.4 1.3625C6.5875 1.6125 7.83125 3.3 8.95 5.35625C11.3813 4.44375 12.4062 3.06875 12.5312 2.89375C11.325 1.825 9.7375 1.175 8 1.175C7.45 1.175 6.9125 1.24375 6.4 1.3625ZM13.2875 3.68125C13.1438 3.875 12 5.34375 9.475 6.375C9.63125 6.7 9.7875 7.03125 9.93125 7.3625C9.98125 7.48125 10.0312 7.6 10.0813 7.7125C12.3563 7.425 14.6125 7.8875 14.8375 7.93125C14.8187 6.325 14.2438 4.84375 13.2875 3.68125Z" fill="black"/>
</g>
<defs>
<clipPath id="clip0_294_1088">
<rect width="16" height="16" fill="white"/>
</clipPath>
</defs>
</svg>
